<svg height="200" viewBox="0 0 100 40.150002" width="500" xmlns="http://www.w3.org/2000/svg" xmlns:xlink="http://www.w3.org/1999/xlink"><clipPath id="a"><path d="m293.15 523.797h103.583v51.636h-103.583z"/></clipPath><clipPath id="b"><path d="m293.15 523.798h103.583v51.635h-103.583z"/></clipPath><clipPath id="c"><path d="m293.15 523.797h103.583v51.636h-103.583z"/></clipPath><g transform="matrix(.9557591375 0 0 -.9557591375 -279.69272625 550.4177425)"><g fill="#006f51"><g clip-path="url(#a)"><path d="m0 0c-.154.001-.275.127-.276.279v9.862c.001.152.122.278.276.279h5.184c.16 0 .292-.124.292-.279v-.765c-.008-.167-.143-.275-.292-.279h-3.784v-2.912h3.034c.156-.001.276-.126.278-.279v-.749c-.002-.153-.125-.278-.278-.28h-3.034v-4.598c-.001-.153-.123-.278-.277-.279z" transform="translate(339.5762 561.4983)"/><path d="m0 0c.304-.381.821-.6 1.457-.6 1.354.009 2 .883 2.016 2.854-.016 1.971-.66 2.829-2.032 2.84-1.371-.011-1.999-.852-2.017-2.87.002-1.124.163-1.713.575-2.224m1.442 6.372c1.156 0 2.094-.386 2.737-1.1.642-.714.986-1.745.986-3.018 0-1.266-.347-2.303-.986-3.026-.637-.722-1.561-1.121-2.686-1.121h-.004c-1.15-.001-2.096.398-2.747 1.118-.653.721-1.007 1.755-1.007 3.014 0 1.266.347 2.3.99 3.019.642.72 1.577 1.114 2.717 1.114" transform="translate(347.23 563.1315)"/><path d="m0 0c.304-.381.822-.6 1.457-.6 1.355.009 2.001.883 2.016 2.854-.015 1.971-.659 2.829-2.03 2.84-1.374-.011-2.001-.852-2.018-2.87.001-1.124.162-1.713.575-2.224m1.443 6.372c1.154 0 2.092-.386 2.735-1.1s.986-1.745.986-3.018c0-1.266-.346-2.303-.984-3.026-.638-.722-1.564-1.121-2.688-1.121h-.006c-1.147-.001-2.093.398-2.744 1.118-.652.721-1.007 1.755-1.007 3.014 0 1.266.346 2.3.989 3.019.64.72 1.577 1.114 2.719 1.114" transform="translate(355.3966 563.1315)"/><path d="m0 0c-.741-.001-1.33-.248-1.745-.741-.443-.514-.598-1.035-.601-2.13.01-1.705.862-2.662 2.33-2.671.29 0 .58.045.821.118.491.177.584.293.598.704v3.852c-.007.353-.07.468-.277.609-.274.168-.675.259-1.121.259zm-3.03-5.738c-.648.703-1.008 1.708-1.008 2.914.005 2.401 1.546 4.112 3.724 4.117.542-.002 1.108-.122 1.457-.357l.142-.102c.078-.044.087-.049.118-.051v3.09c.003.186.148.336.336.34h.943c.199 0 .336-.165.336-.34v-10.244c-.002-.186-.148-.338-.336-.341h-.778c-.19 0-.337.153-.35.345-.051-.008-.098-.025-.16-.059l-.13-.059c-.468-.239-1.011-.349-1.594-.349-1.118-.001-2.053.394-2.7 1.096" transform="translate(365.3648 568.2101)"/><path d="m0 0c.089.002.171-.034.304-.127.467-.334 1.296-.578 1.959-.577 1.053.01 1.666.563 1.672 1.449 0 .247-.043.478-.123.671-.128.27-.266.415-.775.782l-1.765 1.254c-.321.217-.583.437-.769.658-.398.439-.627 1.09-.629 1.772-.001.851.301 1.553.853 2.033.551.482 1.344.739 2.315.739.749-.001 1.583-.154 2.174-.423.168-.051.271-.2.244-.392v-.872c-.001-.09-.003-.161-.041-.232-.04-.076-.134-.112-.205-.108-.1-.004-.183.041-.303.142-.523.371-1.128.577-1.794.577-.997-.01-1.561-.503-1.567-1.311.006-.501.176-.797.776-1.223l1.842-1.269c1.123-.768 1.597-1.523 1.592-2.583 0-.9-.336-1.65-.936-2.168s-1.456-.803-2.486-.803c-.764.001-1.667.137-2.242.374-.241.076-.385.219-.372.425v.916c.002.147.109.295.276.296" transform="translate(339.0661 551.7321)"/><path d="m0 0c-.187.004-.333.155-.336.34v.612c.003.186.149.337.336.341h.713v1.693c.002.175.138.34.337.34h.943c.186-.003.333-.154.336-.34v-1.693h2.046c.186-.004.333-.155.338-.341v-.612c0-.198-.162-.339-.338-.34l-2.046.001v-4.324c.021-.814.262-1.077.967-1.096.253-.001.505.058.711.169l.177.097c.083.034.152.055.221.055.089.002.176-.038.229-.107.055-.068.079-.155.079-.249v-.55c.013-.162-.071-.319-.226-.373-.403-.213-1.054-.334-1.61-.335-.672 0-1.216.187-1.592.545-.376.359-.573.882-.572 1.524v4.643z" transform="translate(345.2808 556.4327)"/><path d="m0 0c-1.213-.428-1.44-.674-1.452-1.393.011-.657.376-.958 1.267-.974.433 0 .871.089 1.21.234.323.175.357.213.372.664v1.968l-1.394-.498m-3.146-1.454c-.002.723.351 1.359.977 1.758.525.345 1.308.698 2.11.961l1.09.366c.324.134.351.168.363.369v.337c-.013.596-.308.818-1.178.836-.773.002-1.66-.227-2.185-.561-.129-.093-.225-.129-.332-.126-.087-.001-.174.026-.234.089-.062.062-.088.148-.086.235v.612c-.008.215.042.383.2.477.497.314 1.835.563 2.832.567.839 0 1.491-.178 1.94-.549.448-.371.675-.932.673-1.641v-5.473c-.002-.186-.148-.338-.336-.341h-.763c-.113 0-.219.028-.291.107-.063.071-.086.16-.09.258-.098-.005-.151-.021-.293-.079l-.269-.122c-.386-.179-1.019-.285-1.516-.286-1.523.002-2.61.898-2.612 2.206" transform="translate(353.7224 553.3803)"/><path d="m0 0c.116 0 .179.021.395.114.194.076.294.122.361.138.463.173.927.252 1.418.252.83.001 1.521-.257 2.004-.732.48-.474.746-1.16.745-1.994v-4.937c-.004-.186-.149-.338-.337-.341h-.959c-.188.003-.333.155-.336.341v4.723c-.018 1.157-.481 1.629-1.611 1.648-.364 0-.726-.06-1.023-.176-.414-.172-.504-.309-.515-.677v-5.518c-.003-.186-.148-.338-.335-.341h-.945c-.187.003-.332.155-.336.341v7.2c.004.185.149.338.336.341h.734c.128-.002.23-.01.311-.092.077-.082.084-.181.085-.29z" transform="translate(359.2906 557.3439)"/><path d="m0 0c-.741-.002-1.332-.248-1.746-.742-.441-.514-.599-1.035-.602-2.129.011-1.706.862-2.663 2.333-2.671.287 0 .577.044.819.118.493.177.583.292.598.703v3.853c-.007.352-.07.468-.278.609-.271.168-.673.259-1.12.259zm-3.033-5.738c-.646.703-1.006 1.707-1.006 2.913.004 2.402 1.547 4.113 3.724 4.117.541-.002 1.107-.121 1.457-.356l.143-.102c.076-.044.085-.049.117-.051v3.089c.002.185.148.337.336.341h.943c.198 0 .337-.165.337-.341v-10.243c-.003-.187-.15-.338-.337-.341h-.779c-.19 0-.338.152-.351.345-.049-.008-.097-.026-.157-.06l-.13-.059c-.469-.239-1.012-.348-1.594-.348-1.12-.001-2.053.392-2.703 1.096" transform="translate(369.138 556.5555)"/><path d="m0 0c-1.212-.428-1.441-.674-1.453-1.393.011-.657.377-.958 1.268-.974.434 0 .87.089 1.21.234.323.175.357.213.371.664v1.968l-1.394-.498m-3.146-1.454c-.002.723.352 1.359.979 1.758.522.345 1.308.698 2.109.961l1.091.366c.323.134.351.168.361.369v.337c-.013.596-.308.818-1.177.836-.773.002-1.661-.227-2.185-.561-.132-.093-.225-.129-.332-.126-.088-.001-.175.026-.236.089-.061.062-.087.148-.087.235v.612c-.004.215.045.383.203.477.496.314 1.834.563 2.832.567.839 0 1.491-.178 1.939-.549.449-.371.676-.932.674-1.641v-5.473c-.003-.187-.15-.338-.336-.341h-.764c-.112 0-.219.028-.29.107-.064.071-.086.16-.09.258-.098-.005-.151-.021-.294-.079l-.267-.122c-.387-.179-1.019-.285-1.516-.286-1.524.002-2.611.898-2.614 2.206" transform="translate(376.0657 553.3803)"/><path d="m0 0c-.188.003-.334.155-.336.341v7.2c.002.186.148.337.336.341h.764c.104 0 .201-.022.273-.091.072-.07.093-.166.093-.264v-.147c.08.004.131.021.273.092.606.31 1.014.411 1.64.41.267-.002.446-.019.583-.101.143-.085.19-.244.185-.408v-.689c0-.182-.113-.37-.319-.371-.029.002-.078-.003-.136.021l-.068.013c-.274.059-.692.105-.996.105-.876-.026-1.065-.169-1.087-.792v-5.319c0-.176-.129-.34-.321-.341z" transform="translate(380.4208 549.8438)"/><path d="m0 0c-.741-.002-1.331-.248-1.744-.742-.443-.514-.599-1.035-.603-2.129.013-1.706.862-2.663 2.332-2.671.288 0 .578.044.82.118.491.177.583.292.597.703v3.853c-.007.352-.068.468-.277.609-.273.168-.672.259-1.121.259h-.003zm-3.029-5.738c-.649.703-1.008 1.707-1.008 2.913.005 2.402 1.546 4.113 3.721 4.117.543-.002 1.108-.121 1.46-.356l.142-.102c.075-.044.085-.049.116-.051v3.089c.003.186.149.337.336.341h.944c.198 0 .335-.166.336-.341v-10.243c-.003-.186-.15-.338-.336-.341h-.779c-.189 0-.338.152-.35.345-.051-.008-.097-.025-.159-.059l-.128-.06c-.471-.239-1.013-.348-1.595-.348-1.121-.001-2.054.392-2.7 1.096" transform="translate(388.2308 556.5555)"/><path d="m0 0c-.586.336-.828.515-1.072.783-.353.36-.528.853-.527 1.454-.001.705.248 1.291.7 1.694.453.402 1.1.618 1.884.618.583.001 1.053-.111 1.605-.346.291-.115.426-.255.409-.483v-.704c-.001-.16-.091-.34-.277-.341-.111.001-.196.049-.311.124-.61.361-.918.455-1.441.457-.661-.015-.942-.253-.953-.775 0-.247.092-.458.263-.606.121-.111.311-.231.685-.445l.569-.336c.632-.368.92-.592 1.157-.9.287-.376.456-.914.456-1.428 0-.707-.262-1.301-.734-1.711-.47-.409-1.139-.632-1.939-.632-.627 0-1.183.11-1.781.345-.321.111-.462.262-.443.514v.658c.002.091.017.174.067.245.049.07.137.114.226.112.091.002.18-.031.266-.094.571-.343 1.073-.488 1.591-.488.749.011 1.126.325 1.132.868-.003.385-.188.658-.617.896l-.435.245z" transform="translate(393.5852 553.2984)"/><path d="m0 0h2.604l-1.302 4.108zm4.103-4.701-1.114 3.516h-3.389l-1.129-3.517c-.035-.13-.147-.196-.254-.198h-.886c-.085 0-.159.01-.227.057-.068.05-.095.135-.092.207v.046.021l.006.018.059.15 3.207 9.281.103.288c.09.342.309.496.706.475h.628c.268 0 .412-.014.536-.119.148-.104.224-.317.334-.631l3.102-9.281.039-.126c.037-.058.024-.097.028-.122.003-.086-.049-.175-.122-.213-.072-.041-.151-.051-.244-.051h-1.02-.004-.001c-.121 0-.224.085-.266.199" transform="translate(341.1202 543.0886)"/><path d="m0 0c-.271.196-.715.317-1.223.315-1.468-.009-2.289-.961-2.301-2.732.009-1.658.882-2.681 2.271-2.686.43-.001.898.118 1.206.277.23.137.261.191.272.483v3.883c-.013.303-.014.303-.222.459m-4.371-9.108c-.326.12-.485.277-.473.531v.642c.002.181.107.371.308.371.096-.001.176-.04.248-.075l.193-.105c.577-.312 1.468-.524 2.194-.523.674-.001 1.269.151 1.644.407.321.234.476.595.479 1.331v.601c-.021-.009-.049-.023-.097-.044-.565-.296-1.094-.423-1.666-.423-1.097-.001-2.022.393-2.667 1.086-.646.692-1.01 1.678-1.01 2.847 0 1.194.391 2.214 1.07 2.934.679.721 1.644 1.138 2.773 1.138.461 0 .894-.078 1.249-.228.093-.047.232-.125.389-.229.067-.032.081-.042.109-.046v.009c0 .106.019.199.084.273.064.072.159.099.25.098h.794c.2 0 .337-.165.338-.34v-7.599c0-1.002-.323-1.789-.951-2.318-.629-.528-1.542-.79-2.713-.79-.868 0-1.864.169-2.545.452" transform="translate(351.9472 544.5844)"/><path d="m0 0v.042c-.006 1.029-.704 1.717-1.775 1.724-1.014-.004-1.752-.719-1.817-1.766zm-4.209-4.004c-.649.696-1.005 1.694-1.005 2.9 0 1.257.331 2.293.937 3.018.607.726 1.492 1.131 2.56 1.13.999 0 1.84-.357 2.423-.987.585-.629.911-1.526.911-2.595v-.413c0-.176-.138-.342-.337-.342h-4.877c.015-1.516.927-2.492 2.33-2.498.496-.001 1.174.206 1.764.554l.101.05c.096.069.196.082.264.083.192 0 .321-.172.321-.355v-.597c.019-.259-.109-.428-.395-.528-.662-.314-1.512-.499-2.279-.5-1.133 0-2.071.386-2.718 1.08" transform="translate(359.9479 543.1496)"/><path d="m0 0c.114.001.18.021.395.114.194.076.293.122.36.139.461.172.927.251 1.418.251.831.001 1.523-.256 2.003-.731.482-.474.745-1.161.745-1.995v-4.938c-.002-.185-.147-.337-.334-.34h-.96c-.187.003-.333.154-.336.34v4.725c-.019 1.156-.482 1.629-1.612 1.646-.363.001-.725-.059-1.025-.176-.411-.171-.502-.308-.512-.674v-5.521c-.003-.186-.15-.336-.336-.34h-.944c-.187.003-.334.154-.336.34v7.202c.002.186.149.337.336.341h.734c.127-.002.229-.012.311-.091.077-.084.083-.182.085-.292z" transform="translate(363.9409 545.6882)"/><path d="m0 0c.19-.004.305-.184.305-.387v-.611c.012-.198-.082-.36-.256-.435-.536-.273-1.411-.439-2.208-.44-1.198-.001-2.169.371-2.834 1.07-.668.697-1.023 1.712-1.023 2.97 0 1.253.383 2.279 1.087 2.989.705.71 1.722 1.098 2.966 1.098.658 0 1.318-.125 1.925-.389.22-.068.354-.215.343-.396v-.718c0-.182-.105-.371-.305-.371-.099-.002-.169.032-.294.106-.621.345-1.087.474-1.699.474-1.501-.01-2.319-.946-2.332-2.732.013-1.816.864-2.8 2.362-2.809.533 0 1.084.147 1.621.451l.063.025c.096.064.183.103.279.105" transform="translate(375.81 539.9393)"/></g><g clip-path="url(#b)"><path d="m382.1317 545.7031c.066.25.251.384.481.368h.629c.113-.001.205-.01.287-.051.083-.036.145-.136.139-.229.001-.083-.023-.151-.066-.252l-2.472-6.91-.315-.903c-.287-.785-.617-1.55-.876-2.033-.286-.535-.67-.792-1.23-.792h-.022-.136c-.139.001-.251.011-.343.086-.093.078-.112.193-.112.316v.565c0 .229.106.447.337.448h.134c.116.007.141.019.235.177.145.234.306.581.457 1.004l.327.893-2.843 7.081c-.059.136-.085.204-.085.289-.004.096.046.196.127.245.081.05.176.065.284.066h.824c.261.01.462-.115.539-.348l2.015-5.312 1.685 5.291" fill="#006f51"/></g></g><g><path d="m302.7912 542.5458-.034 20.521c0 .82.483 1.487 1.083 1.491.55 0 1-.553 1.079-1.273l.021-16.62c.005-.823.492-1.489 1.087-1.489.579-.001 1.047.615 1.084 1.39v.019c0 .027.003.055.003.084l-.025 16.484c.026.785.499 1.411 1.078 1.412.495-.001.914-.459 1.045-1.083l-.007 3.432h-.014c-.01 3.228 2.011 6.979 4.854 8.515-5.174.108-10.387-1.734-14.452-5.562-8.239-7.757-8.628-20.719-.873-28.959 1.997-2.124 4.347-3.723 6.874-4.798-1.448 1.636-2.266 3.598-2.69 5.379-.048.208-.113.817-.113 1.057" fill="#6cb33f"/><g clip-path="url(#c)"><path d="m0 0 .035-20.519c.001-.823-.486-1.488-1.083-1.489-.547-.001-.996.552-1.075 1.271l-.026 16.62c-.003.824-.491 1.487-1.09 1.492-.574-.005-1.043-.622-1.08-1.397v-.014c0-.029-.003-.058 0-.083l.024-16.488c-.03-.787-.503-1.409-1.081-1.411-.498-.001-.914.459-1.046 1.082l.022-3.395.006-.033c.003-3.126-1.887-6.745-4.591-8.37 5.125-.063 10.277 1.776 14.307 5.568 8.234 7.756 8.621 20.719.868 28.958-2.111 2.237-4.608 3.896-7.291 4.97 1.61-1.661 2.73-4.007 2.991-6.103.069-.196.11-.418.11-.659" fill="#bed9a8" transform="translate(324.3589 567.2061)"/><path d="m0 0c-2.843-1.536-4.863-5.286-4.86-8.517l.008-.015.02-3.415.027-16.812c.003-.822.491-1.489 1.089-1.485.427 0 .792.339.967.831.008.007.01.012.01.019.021.068.044.14.058.215 0 .02.01.038.014.059.01.063.016.128.022.196.003.055.012.107.011.161l-.012 16.181.004.324c.025.568.288 1.047.645 1.264.011.005.018.013.024.018.014.005.019.007.031.014.118.066.254.102.393.104.511 0 .939-.489 1.058-1.143l.012-.084c.01-.085.001-.181.007-.269l.026-16.658c.089-.696.534-1.229 1.069-1.225.138-.001.269.038.391.102.006 0 .013 0 .017.001.01.01.016.02.031.028.374.232.632.752.632 1.351l-.006 16.283.009.224c0 .022.006.047.009.069.002.066.012.133.024.194.002.02.009.038.011.059.015.073.035.149.058.22l.007.015c.173.499.542.842.972.839.599.003 1.087-.666 1.087-1.488l.027-16.82c.132-.622.548-1.078 1.046-1.08.578.002 1.051.624 1.081 1.41l-.024 16.486c-.003.028 0 .057 0 .086v.014c.037.777.506 1.391 1.08 1.396.599-.005 1.087-.667 1.09-1.492l.026-16.62c.079-.718.528-1.273 1.075-1.271.597.001 1.083.666 1.083 1.49l-.035 20.521c0 .238-.018.484-.049.714-.315 2.089-1.442 4.386-3.052 6.045-2.307.923-4.755 1.415-7.213 1.461" fill="#006f51" transform="translate(314.0449 575.4285)"/><path d="m0 0c2.842 1.536 4.599 5.16 4.596 8.391l-.008.016-.02 3.414-.025 16.812c-.004.822-.493 1.49-1.09 1.486-.427 0-.792-.339-.967-.832-.009-.006-.01-.012-.01-.019-.022-.067-.042-.14-.058-.214 0-.022-.008-.039-.014-.06-.011-.063-.015-.128-.022-.196-.003-.055-.013-.107-.01-.161l.013-16.181-.006-.325c-.024-.566-.288-1.046-.645-1.263-.012-.005-.018-.013-.024-.019-.014-.004-.02-.006-.031-.013-.119-.066-.254-.102-.392-.105-.511 0-.941.49-1.059 1.145l-.012.083c-.009.086-.001.18-.005.268l-.029 16.659c-.088.697-.534 1.23-1.068 1.226-.138 0-.269-.039-.391-.103-.006 0-.012 0-.016-.002-.012-.009-.019-.019-.031-.027-.374-.234-.634-.752-.634-1.35l.006-16.285-.009-.223c0-.022-.005-.047-.008-.069-.002-.067-.011-.133-.024-.194-.001-.02-.007-.038-.011-.059-.013-.073-.035-.149-.059-.22l-.006-.014c-.176-.499-.543-.842-.972-.841-.6-.001-1.086.667-1.086 1.489l-.029 16.821c-.131.621-.548 1.077-1.045 1.08-.578-.003-1.052-.625-1.08-1.41l.023-16.486c.003-.029 0-.057 0-.086v-.014c-.037-.778-.507-1.393-1.08-1.396-.598.003-1.087.667-1.09 1.491l-.025 16.62c-.081.718-.529 1.274-1.076 1.27-.597 0-1.084-.665-1.084-1.488l.035-20.521c0-.239.019-.485.052-.716.313-2.088 1.139-4.082 2.747-5.741 2.308-.922 5.321-1.593 7.779-1.638" fill="#fff" transform="translate(313.3736 534.4716)"/></g></g></g></svg>